<?xml version="1.0" encoding="UTF-8"?>
<svg enable-background="new 0 0 403.069 177.155" viewBox="0 0 403.069 177.155" xmlns="http://www.w3.org/2000/svg">
 <path d="m19.113,112.786c-8.207,13.148-22.24,39.437-8.618,53.057 14.817,14.814 50.306.128 66.275-5.736 11.847-4.352 23.412-9.271 34.973-14.328 5.234-2.289 10.343-4.913 15.501-7.37 4.296-2.046 3.745,3.298 2.111,5.062-2.937,3.17-10.586,4.979-14.493,6.784-5.54,2.561-11.127,4.943-16.765,7.281-9.964,4.131-20.01,7.923-30.29,11.203-14.704,4.69-58.727,18.429-66.05-4.276-3.906-12.111-.74-24.563 4.025-36.037 1.743-4.197 8.01-26.196 13.331-15.64" fill-rule="evenodd"/>
 <path d="m29.751 112.17c20.439-0.238 20.491-31.606 0-31.606s-20.439 31.368 0 31.606" fill="#fff" fill-rule="evenodd"/>
 <path d="m44.399,96.286c-.151,4.458-1.903,8.287-5.319,11.18-2.735,2.316-10.032,2.57-9.328,5.936 9.298-.014 17.094-7.822 17.115-17.115l-2.468-.001"/>
 <path d="m29.751,81.792c3.958.139 7.492,1.512 10.331,4.316 2.707,2.673 3.623,10.871 6.784,10.177-.15-9.239-7.824-16.943-17.115-16.96v2.467"/>
 <path d="m15.104,96.286c.243-4.805 2.308-9.066 6.322-11.87 2.743-1.916 9.075-1.507 8.325-5.09-9.291.017-16.965,7.721-17.115,16.96h2.468"/>
 <path d="m29.751,110.935c-4.456-.15-8.289-1.904-11.179-5.32-2.316-2.736-2.57-10.034-5.937-9.329 .021,9.292 7.817,17.102 17.115,17.115 .001-.822.001-1.644.001-2.466"/>
 <path d="m30.059,104.151c9.886-.149 9.935-15.338 0-15.419-10.122-.082-10.069,15.254 0,15.419" fill-rule="evenodd"/>
 <path d="m18.651,107.542c-2.037,1.448-2.348,2.807-.155,4.01 1.883-1.434 2.159-2.791.155-4.01" fill="#fff" fill-rule="evenodd"/>
 <path d="m17.417,109.084 .153,1.695c2.037-1.447 2.348-2.807.155-4.009-1.271,1.753-1.966,2.036-1.851,4.164-.051-.565-.102-1.131-.152-1.696l-.772.925c.308.257.616.515.924.771l1.543-1.85"/>
 <path d="m17.57,110.78 1.696-.152c-.616-.515-1.232-1.028-1.849-1.543l-1.543,1.851c1.736.833 1.534,1.438 3.547,1.387l-1.696.154 .926.925 .77-1.079c-.617-.515-1.234-1.03-1.851-1.543"/>
 <path d="m19.575,110.008c-.052-.564-.103-1.129-.155-1.693-1.937,1.493-2.149,2.852 0,4.007 1.164-1.746 1.836-2.089 1.696-4.162 .052.564.103,1.13.155,1.694l.771-.925-.926-.77-1.541,1.849"/>
 <path d="m19.575,108.315-1.696.152 1.696,1.541c2.318-2.222.735-3.294-1.851-3.237l1.696-.154-.77-.925-.926,1.079c.617.515 1.234,1.029 1.851,1.544"/>
 <path d="m138.915,116.485c-5.013,7.017-10.71,21.076.692,25.185 4.847,1.746 24.887,5.201 22.438-3.598-6.213.989-18.642,3.102-23.129-2.93-5.09-6.84 7.965-15.401-.001-18.657" fill="#fff" fill-rule="evenodd"/>
 <path d="m162.04 141.93c-7.713 1.6-18.197 2.21-25.225-2.336-7.647-4.946-1.416-17.452 2.56-22.798l-0.926-0.614c-4.221 6.123-10.319 18.538-2.17 24.109 3.417 2.337 25.649 6.52 25.761 1.639"/>
 <path d="m162.044,138.534c-.818.561-.69,2.909 0,4.626 .898-1.796.919-3.885 0-5.55l.617.462c-.609-1.213-.459-.253-.617.462"/>
 <path d="m142.154,119.725c-3.787-.986-6.535,13.664-1.851,17.268 5.597,4.307 15.407,2.559 21.741,1.541v-.924c-6.35,1.011-14.09,1.973-20.045-1.004-10.053-5.027 1.95-11.859.848-17.422-.187-.947-.357.325-.693.541"/>
 <path d="m139.379,116.792c-.023.483.937,1.825 2.775,2.933l.617-.927c-1.401-1.223-2.659-2.353-4.318-2.62 .474-.84.541.635.462-.465-.949.733-.018.573.464,1.079"/>
 <path d="m130.282,138.689c4.291-3.933 6.251,1.074.77,2.158-.275-.68-.645-1.435-.77-2.158" fill="#fff" fill-rule="evenodd"/>
 <path d="m134.444,136.837c-1.355-.128-3.035.463-4.316,1.387l.307.927c2.21-.926 3.301-1.543 4.009-2.314-1.25-1.247-.013.042 0,0"/>
 <path d="m135.215,138.224c-.44-.554-.13-1.439-1.696-1.079 .851,2.24 1.48,1.022 1.696,1.079"/>
 <path d="m130.744,141.156c2.151-.064 3.823-1.082 4.471-2.932-.945.581-3.01,1.534-4.471,2.932"/>
 <path d="m130.127,138.224c.134,1.043-.249,1.777.617,2.932 .381-1.739-.143-1.791-.31-2.005l-.307-.927c-.758.81.058.539 0,0"/>
 <path d="m137.99 116.02c6.21 4.829 5.521 4.208 10.878-0.896 4.092-3.899 8.063-7.942 12.097-11.902 7.271-7.139 14.737-13.215 23.59-18.347 18.66-10.816 38.205-11.75 58.619-16.853 20.584-5.146 38.199-13.725 56.073-25.317 9.25-6 18.66-12.129 26.908-19.49 6.657-5.942 16.633-18.824 27.079-13.275 5.849 3.107 10.604 18.723 16.808 18.348 9.598-0.58-2.506-14.105-4.626-16.807-17.109-21.797-34.098-1.576-49.34 10.331-14.186 11.082-29.081 21.249-45.176 29.296-18.405 9.203-36.594 10.611-56.279 15.264-31.581 7.463-55.208 26.02-76.631 49.648" fill-rule="evenodd"/>
 <path d="m143.233,120.032c-.222-.74-3.13-3.069-4.934-4.473l-.617.926c1.982,1.543 4.05,3.424 6.167,4.164-.702-.011-.805.144-.309.462 .622-.662.029-.566-.307-1.079"/>
 <path d="m165.744,97.829c-7.45,7.453-15.127,14.687-22.511,22.203l.617.617c4.992-5.078 21.379-16.834 21.894-22.82"/>
 <path d="m215.083,72.85c-17.411,2.229-36.974,12.463-49.339,24.979l.617.617c6.461-5.852 14.11-10.889 21.741-15.109 4.568-2.526 9.363-4.516 14.225-6.385 3.255-1.253 11.302-1.96 12.756-4.102"/>
 <path d="m258.26 63.908c-14.031 4.226-28.757 6.516-43.173 8.942v0.926c6.348-1.071 41.821-4.585 43.173-9.868"/>
 <path d="m333.192,15.801c-9.849,10.802-23.008,19.662-35.457,27.198-12.479,7.555-25.448,16.522-39.479,20.909l.308.925c14.19-4.431 27.879-13.432 40.397-21.278 5.367-3.364 36.162-21.619 34.231-27.754"/>
 <path d="m351.693,8.708c-5.872-1.588-14.469,2.169-18.501,7.093l.616.617c2.987-2.956 6.29-4.921 10.253-6.245 2.626-.877 6.474-.277 7.632-1.465"/>
 <path d="m367.27 26.903c-3.088-5.888-9.139-15.782-15.574-18.194 1.498 3.114 12.842 17.57 15.574 18.194"/>
 <path d="m373.897,25.515c-1.602.417-4.615,3.133-7.557,1.696 2.359,3.377 6.736.712 8.48-2.005 .265.138.017.184-.923.309"/>
 <path d="m364.955,11.792c3.334,4.238 6.547,8.887 8.942,13.723l.924-.309c-1.562-3.302-6.785-14.034-9.866-13.414"/>
 <path d="m343.985,2.079c9.158-.166 15.536,1.918 20.97,9.713 .308-.205.616-.411.924-.616-3.06-4.108-17.337-15.922-21.894-9.097"/>
 <path d="m322.399,17.188c5.079-5.93 13.693-13.73 21.586-15.109v-.925c-4.745.55-23.623,12.264-21.586,16.034"/>
 <path d="m288.168,42.322c11.633-7.491 24.199-15.563 34.23-25.133-.309-.205-.618-.411-.927-.616-4.453,4.571-34.222,21.736-33.303,25.749"/>
 <path d="m255.944,58.511c11.053-4.561 22.072-9.885 32.225-16.189l-.617-.926c-4.83,3.48-10.418,5.848-15.649,8.635-3.711,1.976-14.938,5.375-15.959,8.48"/>
 <path d="m219.4,65.912c12.309-1.777 24.627-3.775 36.544-7.4-.104-.308-.206-.617-.31-.925-5.811,1.706-11.684,3.337-17.654,4.394-3.941.697-16.96,1.229-18.58,3.931"/>
 <path d="m179.467,80.405c9.867-6.769 27.591-13.034 39.933-14.493v-.925c-5.677.725-40.787,10.417-39.933,15.418"/>
 <path d="m138.3,115.559c1.991.463 13.314-13.241 16.344-16.034 7.668-7.07 15.913-13.685 24.824-19.12l-.617-.924c-8.755,5.337-16.405,11.808-23.984,18.667-5.056,4.576-15.036,12.133-17.183,18.337-.746-.421.629-.808-.464-.462 .753.976.544-.014 1.08-.464"/>
 <path d="m161.89,143.777c.052-2.211.103-4.421.155-6.632 18.225,1.382 35.899,3.803 54.084.778 21.397-3.559 37.252-15.522 56.004-25.292 18.842-9.816 37.924-14.287 58.901-17.425 10.863-1.625 21.997-2.929 32.994-2.928 7.184.001 27.388,3.74 29.689-6.979 1.221-5.687-3.449-25.044 3.229-25.786 6.921-.769 5.77,17.865 5.166,22.974-2.395,20.245-23.726,17.19-38.238,17.19-37.849,0-74.923,8.36-106.543,29.452-28.456,18.981-62.958,18.906-95.441,14.648" fill-rule="evenodd"/>
 <path d="m162.044,136.685c-.705,2.106-.562,4.684-.617,7.092h.924c.052-2.211.103-4.421.155-6.632-1.022-.089.172.185-.927-.614-.652,1.696.318-.1.465.154"/>
 <path d="m194.42 139.3c-10.584-1.334-21.772-2.426-32.377-2.62v0.925c5.821 0.765 29.599 5.032 32.377 1.695"/>
 <path d="m247.618,126.2c-15.208,11.204-35.293,11.56-53.196,13.105v.925c8.233.711 54.097-4.447 53.196-14.03"/>
 <path d="m286.626,104.768c-13.317,6.076-26.844,13.298-39.009,21.432l.617.924c6.574-4.397 13.515-8.399 20.518-12.089 3.938-2.075 17.209-6.941 17.874-10.267"/>
 <path d="m375.13,92.433c-14.855-1.462-30.078.032-44.786,2.426-14.194,2.31-30.546,3.844-43.718,9.909 .103.308.205.616.308.924 13.122-6.04 29.279-7.61 43.41-9.909 7.71-1.254 15.533-2.029 23.321-2.588 4.285-.308 19.891,1.416 21.465-.762"/>
 <path d="m393.015,86.109c-4.168,5.415-11.499,6.428-17.885,6.324v.925c4.123.8 19.721-2.341 17.885-7.249"/>
 <path d="m392.86 63.136c1.031 5.152-1.371 20.046 1.079 23.592 0.859-3.573 2.652-23.576-1.079-23.592"/>
 <path d="m400.57 59.282c-3.079-1.112-7.936-0.25-7.71 3.854 1.386-3.344 7.738-3.314 7.71-3.854"/>
 <path d="m402.729,75.781c-.469-5.51-.71-11.135-2.158-16.499l-.927.309c1.1,3.537.757,15.095 3.085,16.19"/>
 <path d="m392.861,97.674c6.763-5.308 11.555-12.919 9.868-21.894h-.924c0,4.597.119,9.102-2.161,13.261-1.594,2.908-7.016,6.358-6.783,8.633"/>
 <path d="m365.878,100.296c7.769,1.63 19.96,1.435 26.982-2.622l-.615-.925c-5.806,3.96-23.942.014-26.367,3.547"/>
 <path d="m323.78 103.69c13.948-1.392 28.047-3.608 42.094-3.393-1.759-3.173-39.667 0.27-42.094 3.393"/>
 <path d="m289.092,112.322c11.05-4.082 22.997-7.113 34.692-8.633v-.927c-6.747.878-32.724,3.871-34.692,9.56"/>
 <path d="m256.715,130.208c10.176-6.783 20.978-13.391 32.377-17.887-.103-.309-.204-.616-.307-.925-5.496,2.164-32.889,14.06-32.07,18.812"/>
 <path d="m216.47 145.32c13.214-2.438 28.947-7.706 40.243-15.109l-0.617-0.927c-6.219 4.192-13.625 6.896-20.662 9.407-4.379 1.562-17.076 3.384-18.964 6.629"/>
 <path d="m161.428,143.777c7.48,3.135 18.638,2.753 26.787,3.044 9.435.337 18.951.468 28.257-1.503v-.925c-9.876,2.088-20.299,1.785-30.335,1.429-6.08-.216-21.149-4.029-24.864-2.045 .45.695.934.308.155,0"/>
 <path d="m261.803,63.136c1.995,4.212 4.162,8.388 6.013,12.645-12.06,2.375-14.98,22.219.354,19.433 3.174-.577 5.891-1.709 8.792-3.063 1.623-.757 2.581,2.996 3.343,4.134 1.21,1.808 3.975,5.354 4.316,7.403 .632,3.787-.028,2.978-4.316,5.24-.923-2.017-3.996-10.366-6.048-9.427-6.281,2.876-14.466,3.375-19.393-2.443-4.428-5.229-3.827-13.272.154-18.504 2.054-2.698 4.76-3.236 4.934-6.321 .112-1.988-2.265-5.692-3.085-7.555 1.565-.488 3.313-1.356 4.936-1.542" fill="#fff" fill-rule="evenodd"/>
 <path d="m267.816,76.243c.232-3.651-3.703-9.359-5.551-13.26l-.926.309c2.03,4.274 4.946,9.553 6.477,12.951"/>
 <path d="m277.375,91.507c-4.077,1.938-14.523,6.82-18.502.848-4.244-6.371 2.772-14.677 8.942-16.112v-.926c-6.711,1.338-14.688,10.653-9.715,17.501 3.442,4.737 20.568,2.267 19.275-1.311"/>
 <path d="m286.01,106.461c-.13-3.508-5.511-12.927-8.635-14.954 1.209,2.935 6.058,13.557 8.325,14.03l.31.924c1.238-1.233-.002,0 0,0"/>
 <path d="m279.843,109.084c2.032-.157 4.119-1.541 6.167-2.623-.104-.308-.206-.616-.31-.924-2.372,1.254-5.102,2.664-5.857,3.547 1.229,1.233-.002.014 0,0"/>
 <path d="m275.372,99.525c.569,2.75 3.083,6.529 4.472,9.56l.924-.31c-1.191-2.601-4.667-10.478-5.396-9.25"/>
 <path d="m260.107,73.467c-17.035,11.803-4.138,37.132 15.265,26.058l-.31-.927c-7.548,4.269-17.858,3.444-21.662-5.241-1.746-3.985-1.582-8.828.825-12.551 1.428-2.208 6.358-5.799 5.882-7.339"/>
 <path d="m256.715,64.215c.035,2.85 1.986,7.511 4.009,9.869-.485-3.333-2.66-8.757-4.009-9.869-1.233,1.046.115.071 0,0"/>
 <path d="m262.265,62.983c-1.699-.087-3.836.403-5.55,1.232l.308.926c1.552-.298 3.51-.857 4.933-1.541-.404-1.284-.64.419.309-.617-.984-.928-.167.15 0,0"/>
 <path d="m368.19 28.753c7.693-4.231 4.278-2.867 8.942 1.542 2.405 2.274 8.904 2.814 4.009 7.709-9.581 9.581-9.4-3.962-12.951-9.251" fill="#fff" fill-rule="evenodd"/>
 <path d="m374.821,25.053c-2.28.541-4.569,2.02-6.784,3.238 .104.309.206.617.31.925 2.62-1.442 5.607-2.847 6.474-4.163-1.191-.776-.113.146 0,0"/>
 <path d="m377.134,29.833c.313-.255-1.293-2.734-2.313-4.78l-.924.616c1.214,2.081 2.173,5.124 3.237,4.164"/>
 <path d="m370.66,33.687c-2.742,4.926 2.261,9.374 7.785,6.861 6.29-2.861 6.159-9.911-1.311-10.716 2.402,3.203 8.748,4.942 1.541,9.405-1.941,1.202-4.097,2.147-6.166.771-2.528-1.68.454-7.188-1.849-6.321"/>
 <path d="m368.037,28.291c.037,1.938 1.515,3.542 2.623,5.396l.924-.617c-.937-1.569-1.912-3.109-2.93-4.625l-.308.771c-.954-.567.67-1.035-.927-.617 .669,1.36.187-.339.618-.308"/>
 <path d="m399.954,59.436-6.784,1.388c-1.055-5.686-10.073-12.955.155-15.265 10.22-2.309 5.312,8.279 6.629,13.877" fill="#fff" fill-rule="evenodd"/>
 <path d="m392.708,60.824c2.009.335 6.444.165 7.246-1.85-2.278.466-5.735,1.162-6.321,1.85h-.925c.618,1.423.004-.009 0,0"/>
 <path d="m391.782,55.582c.128,1.537.285,4.368 1.851,5.242-.381-1.97-.49-6.505-1.851-5.242"/>
 <path d="m399.182,54.194c13.861-15.144-26.249-6.552-7.4,1.388l.309-.925c-5.255-2.822-3.872-8.635 2.159-8.635 9.334,0 2.256,5.577 4.932,8.172"/>
 <path d="m399.954,59.899c.398-1.729-.301-3.707-.771-5.705h-.924c.536,2.286 1.231,4.907 1.695,5.705 1.444-.628-.076-.09 0,0"/>
</svg>
